<svg width="505.762" height="76.954" viewBox="0 0 505.762 76.954" xmlns="http://www.w3.org/2000/svg"><g id="svgGroup" stroke-linecap="round" fill-rule="evenodd" font-size="9pt" stroke="#d62b2b00" stroke-width="0.25mm" fill="#000" style="stroke:#d62b2b00;stroke-width:0.25mm;fill:#000"><path d="M 393.604 40.381 L 393.604 75.977 L 378.711 75.977 L 378.711 44.092 A 25.873 25.873 0 0 0 378.524 40.867 Q 378.08 37.348 376.587 35.254 A 6.826 6.826 0 0 0 372.405 32.538 A 11.019 11.019 0 0 0 369.922 32.276 A 15.596 15.596 0 0 0 366.508 32.622 Q 362.405 33.544 360.596 36.914 A 17.29 17.29 0 0 0 359.178 40.588 Q 358.105 44.557 358.105 50.293 L 358.105 75.977 L 343.213 75.977 L 343.213 21.387 L 354.59 21.387 L 356.592 28.369 L 357.422 28.369 A 15.099 15.099 0 0 1 361.074 24.295 A 14.409 14.409 0 0 1 361.792 23.78 A 18.763 18.763 0 0 1 367.603 21.192 A 26.229 26.229 0 0 1 374.219 20.362 Q 382.959 20.362 388.281 25.122 Q 392.532 28.924 393.388 36.385 A 35.101 35.101 0 0 1 393.604 40.381 Z M 131.738 21.387 L 146.631 21.387 L 146.631 75.977 L 135.205 75.977 L 133.203 68.994 L 132.422 68.994 A 15.015 15.015 0 0 1 128.027 73.535 A 19.109 19.109 0 0 1 122.217 76.123 A 25.945 25.945 0 0 1 115.625 76.953 A 27.949 27.949 0 0 1 110.626 76.527 A 20.551 20.551 0 0 1 105.42 74.878 A 14.928 14.928 0 0 1 98.657 68.408 Q 96.24 64.014 96.24 56.983 L 96.24 21.387 L 111.133 21.387 L 111.133 53.272 Q 111.133 59.131 113.232 62.11 A 6.731 6.731 0 0 0 117.282 64.794 Q 118.441 65.079 119.832 65.088 A 14.034 14.034 0 0 0 119.922 65.088 A 16.045 16.045 0 0 0 122.752 64.854 Q 124.325 64.572 125.577 63.95 A 8.121 8.121 0 0 0 127.051 63.013 A 9.652 9.652 0 0 0 129.555 59.911 Q 130.21 58.661 130.633 57.117 A 17.253 17.253 0 0 0 130.688 56.909 A 29.262 29.262 0 0 0 131.368 53.342 Q 131.599 51.579 131.686 49.57 A 57.982 57.982 0 0 0 131.738 47.071 L 131.738 21.387 Z M 209.229 45.166 L 209.229 52.393 L 174.023 52.393 A 18.938 18.938 0 0 0 174.625 56.57 Q 175.44 59.608 177.328 61.764 A 11.882 11.882 0 0 0 177.808 62.281 Q 181.348 65.869 187.646 65.869 A 44.208 44.208 0 0 0 193.246 65.53 A 35.045 35.045 0 0 0 197.217 64.795 A 45.676 45.676 0 0 0 203.026 62.923 A 55.188 55.188 0 0 0 206.152 61.573 L 206.152 73.096 A 35.542 35.542 0 0 1 197.681 76.026 A 39.199 39.199 0 0 1 193.78 76.626 Q 191.857 76.831 189.675 76.907 A 77.303 77.303 0 0 1 186.963 76.953 Q 178.76 76.953 172.437 73.926 Q 166.113 70.899 162.524 64.698 Q 159.328 59.175 158.978 51.095 A 46.799 46.799 0 0 1 158.936 49.073 A 46.798 46.798 0 0 1 159.392 42.345 Q 159.915 38.748 161.038 35.741 A 25.037 25.037 0 0 1 162.183 33.13 A 23.315 23.315 0 0 1 166.794 26.823 A 21.06 21.06 0 0 1 171.24 23.56 A 25.58 25.58 0 0 1 179.908 20.706 A 33.16 33.16 0 0 1 184.766 20.362 A 33.12 33.12 0 0 1 190.986 20.918 A 24.068 24.068 0 0 1 197.803 23.267 A 20.17 20.17 0 0 1 206.25 31.69 Q 209.054 36.884 209.218 44.242 A 41.406 41.406 0 0 1 209.229 45.166 Z M 331.104 45.166 L 331.104 52.393 L 295.898 52.393 A 18.938 18.938 0 0 0 296.5 56.57 Q 297.315 59.608 299.203 61.764 A 11.882 11.882 0 0 0 299.683 62.281 Q 303.223 65.869 309.521 65.869 A 44.208 44.208 0 0 0 315.121 65.53 A 35.045 35.045 0 0 0 319.092 64.795 A 45.676 45.676 0 0 0 324.901 62.923 A 55.188 55.188 0 0 0 328.027 61.573 L 328.027 73.096 A 35.542 35.542 0 0 1 319.556 76.026 A 39.199 39.199 0 0 1 315.655 76.626 Q 313.732 76.831 311.55 76.907 A 77.303 77.303 0 0 1 308.838 76.953 Q 300.635 76.953 294.312 73.926 Q 287.988 70.899 284.399 64.698 Q 281.203 59.175 280.853 51.095 A 46.799 46.799 0 0 1 280.811 49.073 A 46.798 46.798 0 0 1 281.267 42.345 Q 281.79 38.748 282.913 35.741 A 25.037 25.037 0 0 1 284.058 33.13 A 23.315 23.315 0 0 1 288.669 26.823 A 21.06 21.06 0 0 1 293.115 23.56 A 25.58 25.58 0 0 1 301.783 20.706 A 33.16 33.16 0 0 1 306.641 20.362 A 33.12 33.12 0 0 1 312.861 20.918 A 24.068 24.068 0 0 1 319.678 23.267 A 20.17 20.17 0 0 1 328.125 31.69 Q 330.929 36.884 331.093 44.242 A 41.406 41.406 0 0 1 331.104 45.166 Z M 0 75.977 L 0 4.59 L 22.217 4.59 A 82.262 82.262 0 0 1 29.688 4.907 Q 37.496 5.621 42.513 7.947 A 21.73 21.73 0 0 1 43.799 8.594 A 13.434 13.434 0 0 1 50.721 18.274 A 22.494 22.494 0 0 1 51.123 22.657 A 21.895 21.895 0 0 1 50.736 26.856 A 17.692 17.692 0 0 1 49.829 29.981 A 14.241 14.241 0 0 1 47.764 33.611 A 12.638 12.638 0 0 1 46.094 35.352 A 11.875 11.875 0 0 1 41.469 37.782 A 14.689 14.689 0 0 1 40.137 38.086 L 40.137 38.574 A 20.121 20.121 0 0 1 45.289 40.36 A 18.43 18.43 0 0 1 46.582 41.089 A 12.135 12.135 0 0 1 50.321 44.763 A 15.274 15.274 0 0 1 51.196 46.265 Q 52.93 49.658 52.93 55.274 A 22.211 22.211 0 0 1 52.255 60.866 A 17.517 17.517 0 0 1 49.756 66.407 A 18.989 18.989 0 0 1 43.471 72.142 A 24.315 24.315 0 0 1 40.698 73.511 A 30.161 30.161 0 0 1 34.259 75.36 Q 31.199 75.9 27.713 75.967 A 51.938 51.938 0 0 1 26.709 75.977 L 0 75.977 Z M 449.414 24.073 L 445.02 35.596 A 86.051 86.051 0 0 0 441.626 34.308 A 65.494 65.494 0 0 0 438.477 33.277 A 21.082 21.082 0 0 0 432.422 32.373 A 13.731 13.731 0 0 0 429.492 32.67 A 9.662 9.662 0 0 0 425.928 34.204 A 9.621 9.621 0 0 0 423.222 37.185 A 13.585 13.585 0 0 0 422.07 39.698 Q 421.083 42.544 420.864 46.512 A 42.811 42.811 0 0 0 420.801 48.877 A 35.486 35.486 0 0 0 420.985 52.607 Q 421.303 55.606 422.168 57.862 A 13.39 13.39 0 0 0 423.48 60.456 A 9.509 9.509 0 0 0 426.123 63.159 Q 428.711 64.893 432.422 64.893 A 29.53 29.53 0 0 0 436.675 64.601 A 21.971 21.971 0 0 0 440.674 63.648 Q 444.287 62.403 447.705 60.157 L 447.705 72.901 A 24.983 24.983 0 0 1 440.552 76.001 Q 437.838 76.693 434.08 76.882 A 59.299 59.299 0 0 1 431.104 76.953 Q 422.998 76.953 417.285 73.999 A 19.228 19.228 0 0 1 408.977 65.606 A 23.891 23.891 0 0 1 408.594 64.844 A 27.402 27.402 0 0 1 406.584 58.875 Q 405.948 55.996 405.73 52.632 A 56.454 56.454 0 0 1 405.615 48.975 Q 405.615 41.37 407.574 35.893 A 23.843 23.843 0 0 1 409.009 32.642 A 22.332 22.332 0 0 1 413.968 26.312 A 20.614 20.614 0 0 1 418.433 23.34 A 28.377 28.377 0 0 1 426.724 20.78 A 37.335 37.335 0 0 1 432.422 20.362 A 49.375 49.375 0 0 1 436.77 20.543 Q 439.762 20.808 442.212 21.46 Q 446.201 22.522 449.209 23.972 A 28.431 28.431 0 0 1 449.414 24.073 Z M 222.51 4.59 L 245.313 4.59 A 51.09 51.09 0 0 1 252.494 5.059 Q 260.916 6.259 265.479 10.523 A 19.527 19.527 0 0 1 271.324 21.359 A 28.67 28.67 0 0 1 271.826 26.856 A 28.294 28.294 0 0 1 270.41 35.816 Q 268.994 40.088 265.796 43.408 A 19.243 19.243 0 0 1 261.526 46.704 A 26.601 26.601 0 0 1 257.275 48.657 A 29.304 29.304 0 0 1 252.342 49.942 Q 248.657 50.586 244.141 50.586 L 237.646 50.586 L 237.646 75.977 L 222.51 75.977 L 222.51 4.59 Z M 80.908 0 L 80.908 75.977 L 66.016 75.977 L 66.016 0 L 80.908 0 Z M 505.762 0 L 505.762 75.977 L 490.869 75.977 L 490.869 0 L 505.762 0 Z M 460.352 21.387 L 475.244 21.387 L 475.244 75.977 L 460.352 75.977 L 460.352 21.387 Z M 24.512 44.873 L 15.137 44.873 L 15.137 63.477 L 25 63.477 A 28.065 28.065 0 0 0 28.159 63.312 Q 32.507 62.818 34.521 60.84 A 8.786 8.786 0 0 0 37.018 55.993 A 12.6 12.6 0 0 0 37.207 53.76 A 10.089 10.089 0 0 0 36.914 51.282 A 8.255 8.255 0 0 0 36.035 49.121 A 6.531 6.531 0 0 0 34.215 47.147 Q 33.431 46.575 32.42 46.13 A 12.153 12.153 0 0 0 32.104 45.996 Q 29.374 44.885 24.611 44.873 A 41.368 41.368 0 0 0 24.512 44.873 Z M 244.531 16.992 L 237.646 16.992 L 237.646 38.184 L 242.627 38.184 Q 246.5 38.184 249.44 37.25 A 15.778 15.778 0 0 0 250 37.061 A 11.062 11.062 0 0 0 252.695 35.675 A 9.087 9.087 0 0 0 254.834 33.545 A 8.773 8.773 0 0 0 256.204 30.47 Q 256.5 29.245 256.538 27.814 A 16.042 16.042 0 0 0 256.543 27.393 Q 256.543 23.731 255.13 21.376 A 7.587 7.587 0 0 0 253.613 19.556 A 8.971 8.971 0 0 0 250.701 17.896 Q 249.364 17.416 247.706 17.191 A 23.665 23.665 0 0 0 244.531 16.992 Z M 15.137 16.992 L 15.137 32.862 L 23.926 32.862 A 32.998 32.998 0 0 0 26.968 32.732 Q 29.951 32.455 31.775 31.584 A 6.308 6.308 0 0 0 33.057 30.786 A 6.673 6.673 0 0 0 35.348 26.998 A 10.391 10.391 0 0 0 35.596 24.658 A 8.742 8.742 0 0 0 35.31 22.348 A 5.781 5.781 0 0 0 32.593 18.775 Q 29.959 17.211 24.638 17.019 A 42.804 42.804 0 0 0 23.096 16.992 L 15.137 16.992 Z M 174.365 42.481 L 195.264 42.481 A 17.059 17.059 0 0 0 194.94 39.344 A 13.35 13.35 0 0 0 194.067 36.573 A 9.386 9.386 0 0 0 190.649 32.471 Q 188.542 31.066 185.363 30.965 A 15.72 15.72 0 0 0 184.863 30.957 Q 180.518 30.957 177.661 33.741 Q 175.483 35.863 174.71 39.832 A 22.569 22.569 0 0 0 174.365 42.481 Z M 296.24 42.481 L 317.139 42.481 A 17.059 17.059 0 0 0 316.815 39.344 A 13.35 13.35 0 0 0 315.942 36.573 A 9.386 9.386 0 0 0 312.524 32.471 Q 310.417 31.066 307.238 30.965 A 15.72 15.72 0 0 0 306.738 30.957 Q 302.393 30.957 299.536 33.741 Q 297.358 35.863 296.585 39.832 A 22.569 22.569 0 0 0 296.24 42.481 Z M 467.822 0 Q 471.143 0 473.535 1.538 A 4.729 4.729 0 0 1 475.398 3.912 Q 475.928 5.299 475.928 7.276 A 11.259 11.259 0 0 1 475.759 9.3 Q 475.292 11.848 473.535 13.013 A 9.454 9.454 0 0 1 469.64 14.471 A 12.405 12.405 0 0 1 467.822 14.6 A 11.938 11.938 0 0 1 465.066 14.296 A 9.052 9.052 0 0 1 462.085 13.013 A 4.868 4.868 0 0 1 460.237 10.603 Q 459.912 9.739 459.79 8.656 A 12.357 12.357 0 0 1 459.717 7.276 A 11.567 11.567 0 0 1 459.883 5.239 Q 460.076 4.16 460.496 3.335 A 4.549 4.549 0 0 1 462.085 1.538 A 9.371 9.371 0 0 1 465.577 0.19 A 12.719 12.719 0 0 1 467.822 0 Z" vector-effect="non-scaling-stroke"/></g></svg>